<svg version="1.1" id="Layer_1" xmlns="http://www.w3.org/2000/svg" xmlns:xlink="http://www.w3.org/1999/xlink" x="0px" y="0px"
	 width="100%" viewBox="0 0 100 100" enable-background="new 0 0 100 100" xml:space="preserve">
<path fill="#FBFEFF" opacity="1.000000" stroke="none" 
	d="
M55.000000,101.000000 
	C36.666668,101.000000 18.833340,101.000000 1.000007,101.000000 
	C1.000005,67.666679 1.000005,34.333351 1.000002,1.000021 
	C34.333317,1.000014 67.666634,1.000014 100.999969,1.000007 
	C100.999977,34.333313 100.999977,67.666626 100.999985,100.999969 
	C85.833336,101.000000 70.666664,101.000000 55.000000,101.000000 
M90.534035,22.001619 
	C77.206947,4.757904 55.879959,-2.216788 36.305893,4.267064 
	C16.906898,10.692924 2.819674,28.569427 2.695739,46.917908 
	C11.657351,49.182713 13.112599,48.460339 15.762809,40.409058 
	C18.351940,32.543331 20.934233,24.675350 23.468210,16.964516 
	C26.094004,16.964516 28.211411,16.964516 30.601000,16.964516 
	C32.401337,22.563280 34.261147,28.059040 35.935734,33.610672 
	C40.304790,48.095085 40.270836,48.019440 55.168022,47.739655 
	C58.031475,47.685875 59.247765,46.704224 60.045715,44.044601 
	C62.100536,37.195774 64.842491,30.533110 66.563324,23.610479 
	C67.909447,18.195280 70.216614,15.431160 76.541649,17.317226 
	C79.258171,25.900202 82.027939,34.938881 85.045494,43.894066 
	C85.531555,45.336536 87.005859,47.324146 88.223373,47.478146 
	C91.947403,47.949181 95.768951,47.649300 99.927025,47.649300 
	C99.162262,38.030209 96.208778,29.901880 90.534035,22.001619 
M70.332512,95.975342 
	C74.691757,93.257217 79.123718,90.647774 83.391281,87.792618 
	C88.382790,84.453125 90.484306,80.256401 87.297905,74.308151 
	C85.987564,71.862061 85.558159,68.945900 84.713898,66.247978 
	C80.945595,54.205940 80.942680,54.344505 68.468788,54.248032 
	C65.010086,54.221279 63.511467,55.313152 62.502716,58.606918 
	C59.398563,68.742584 55.924728,78.765030 52.598656,88.819061 
	C50.255695,88.819061 48.304729,88.819061 46.058670,88.819061 
	C43.648533,81.171768 41.276340,73.569191 38.855873,65.982018 
	C34.927666,53.668701 34.906582,53.563454 21.917646,54.479977 
	C20.320768,54.592659 18.070784,56.316994 17.476463,57.827000 
	C15.288874,63.385086 13.872478,69.243668 11.756455,74.834206 
	C10.642038,77.778496 11.303707,79.742218 13.156743,82.042862 
	C24.693645,96.366516 47.609150,105.627365 70.332512,95.975342 
M48.599640,54.288124 
	C46.840374,54.288124 45.081104,54.288124 42.491539,54.288124 
	C44.837502,61.815258 46.923237,68.507439 49.375637,76.376076 
	C51.955296,68.507668 54.135712,61.857018 56.617020,54.288601 
	C53.659401,54.288601 51.580616,54.288601 48.599640,54.288124 
M92.225937,67.170898 
	C92.889297,69.023239 93.552658,70.875572 94.216019,72.727913 
	C94.647255,72.800270 95.078484,72.872635 95.509720,72.944992 
	C97.168892,66.980522 98.828072,61.016060 100.593155,54.670868 
	C95.917015,54.670868 92.554184,54.670868 88.396584,54.670868 
	C89.721436,58.962444 90.872818,62.692104 92.225937,67.170898 
M70.038025,35.574890 
	C68.820206,39.450172 67.602386,43.325455 66.312469,47.430145 
	C70.736900,47.430145 74.479660,47.430145 78.783760,47.430145 
	C76.776276,41.075241 74.904297,35.149273 72.700096,28.171640 
	C71.608986,31.147202 70.932770,32.991299 70.038025,35.574890 
M22.288696,47.632332 
	C25.692087,47.632332 29.095478,47.632332 33.116188,47.632332 
	C31.102715,41.357662 29.322662,35.810406 27.542610,30.263151 
	C27.086283,30.224218 26.629955,30.185286 26.173628,30.146353 
	C24.629049,35.871418 23.084471,41.596481 22.288696,47.632332 
M3.756787,63.662758 
	C4.331253,65.373505 4.905718,67.084244 5.925624,70.121498 
	C7.255926,66.300552 8.096534,64.017281 8.843403,61.703751 
	C9.579100,59.424843 10.219809,57.115269 10.932284,54.717899 
	C7.738508,54.717899 5.073065,54.717899 1.933244,54.717899 
	C2.525032,57.791351 3.016193,60.342190 3.756787,63.662758 
z"/>
<path fill="#3CB8FF" opacity="1.000000" stroke="none" 
	d="
M90.756119,22.285789 
	C96.208778,29.901880 99.162262,38.030209 99.927025,47.649300 
	C95.768951,47.649300 91.947403,47.949181 88.223373,47.478146 
	C87.005859,47.324146 85.531555,45.336536 85.045494,43.894066 
	C82.027939,34.938881 79.258171,25.900202 76.541649,17.317226 
	C70.216614,15.431160 67.909447,18.195280 66.563324,23.610479 
	C64.842491,30.533110 62.100536,37.195774 60.045715,44.044601 
	C59.247765,46.704224 58.031475,47.685875 55.168022,47.739655 
	C40.270836,48.019440 40.304790,48.095085 35.935734,33.610672 
	C34.261147,28.059040 32.401337,22.563280 30.601000,16.964516 
	C28.211411,16.964516 26.094004,16.964516 23.468210,16.964516 
	C20.934233,24.675350 18.351940,32.543331 15.762809,40.409058 
	C13.112599,48.460339 11.657351,49.182713 2.695739,46.917908 
	C2.819674,28.569427 16.906898,10.692924 36.305893,4.267064 
	C55.879959,-2.216788 77.206947,4.757904 90.756119,22.285789 
z"/>
<path fill="#3CB7FF" opacity="1.000000" stroke="none" 
	d="
M69.974609,96.119125 
	C47.609150,105.627365 24.693645,96.366516 13.156743,82.042862 
	C11.303707,79.742218 10.642038,77.778496 11.756455,74.834206 
	C13.872478,69.243668 15.288874,63.385086 17.476463,57.827000 
	C18.070784,56.316994 20.320768,54.592659 21.917646,54.479977 
	C34.906582,53.563454 34.927666,53.668701 38.855873,65.982018 
	C41.276340,73.569191 43.648533,81.171768 46.058670,88.819061 
	C48.304729,88.819061 50.255695,88.819061 52.598656,88.819061 
	C55.924728,78.765030 59.398563,68.742584 62.502716,58.606918 
	C63.511467,55.313152 65.010086,54.221279 68.468788,54.248032 
	C80.942680,54.344505 80.945595,54.205940 84.713898,66.247978 
	C85.558159,68.945900 85.987564,71.862061 87.297905,74.308151 
	C90.484306,80.256401 88.382790,84.453125 83.391281,87.792618 
	C79.123718,90.647774 74.691757,93.257217 69.974609,96.119125 
z"/>
<path fill="#47BCFF" opacity="1.000000" stroke="none" 
	d="
M49.050735,54.288361 
	C51.580616,54.288601 53.659401,54.288601 56.617020,54.288601 
	C54.135712,61.857018 51.955296,68.507668 49.375637,76.376076 
	C46.923237,68.507439 44.837502,61.815258 42.491539,54.288124 
	C45.081104,54.288124 46.840374,54.288124 49.050735,54.288361 
z"/>
<path fill="#47BBFF" opacity="1.000000" stroke="none" 
	d="
M92.125069,66.796333 
	C90.872818,62.692104 89.721436,58.962444 88.396584,54.670868 
	C92.554184,54.670868 95.917015,54.670868 100.593155,54.670868 
	C98.828072,61.016060 97.168892,66.980522 95.509720,72.944992 
	C95.078484,72.872635 94.647255,72.800270 94.216019,72.727913 
	C93.552658,70.875572 92.889297,69.023239 92.125069,66.796333 
z"/>
<path fill="#49BCFF" opacity="1.000000" stroke="none" 
	d="
M70.147293,35.205147 
	C70.932770,32.991299 71.608986,31.147202 72.700096,28.171640 
	C74.904297,35.149273 76.776276,41.075241 78.783760,47.430145 
	C74.479660,47.430145 70.736900,47.430145 66.312469,47.430145 
	C67.602386,43.325455 68.820206,39.450172 70.147293,35.205147 
z"/>
<path fill="#4ABCFF" opacity="1.000000" stroke="none" 
	d="
M21.914293,47.476940 
	C23.084471,41.596481 24.629049,35.871418 26.173628,30.146353 
	C26.629955,30.185286 27.086283,30.224218 27.542610,30.263151 
	C29.322662,35.810406 31.102715,41.357662 33.116188,47.632332 
	C29.095478,47.632332 25.692087,47.632332 21.914293,47.476940 
z"/>
<path fill="#4DBEFF" opacity="1.000000" stroke="none" 
	d="
M3.632070,63.277893 
	C3.016193,60.342190 2.525032,57.791351 1.933244,54.717899 
	C5.073065,54.717899 7.738508,54.717899 10.932284,54.717899 
	C10.219809,57.115269 9.579100,59.424843 8.843403,61.703751 
	C8.096534,64.017281 7.255926,66.300552 5.925624,70.121498 
	C4.905718,67.084244 4.331253,65.373505 3.632070,63.277893 
z"/>
</svg>